<?xml version="1.0" standalone="no"?>
<!DOCTYPE svg PUBLIC "-//W3C//DTD SVG 20010904//EN"
 "http://www.w3.org/TR/2001/REC-SVG-20010904/DTD/svg10.dtd">
<svg version="1.0" xmlns="http://www.w3.org/2000/svg"
 width="962.000000pt" height="962.000000pt" viewBox="0 0 962.000000 962.000000"
 preserveAspectRatio="xMidYMid meet">
<metadata>
Created by potrace 1.11, written by Peter Selinger 2001-2013
</metadata>
<g transform="translate(0.000000,962.000000) scale(0.100000,-0.100000)"
fill="#000000" stroke="none">
<path d="M4500 9198 c-271 -19 -662 -90 -923 -168 -565 -170 -1118 -468 -1604
-867 -707 -580 -1206 -1375 -1428 -2278 -93 -378 -120 -610 -120 -1035 1 -348
11 -476 61 -750 91 -499 225 -867 513 -1408 332 -624 803 -1159 1361 -1544
585 -405 1246 -654 1960 -740 241 -29 744 -32 960 -5 608 76 1102 232 1626
515 302 163 584 360 854 597 220 193 514 521 672 750 636 922 893 2047 718
3143 -95 589 -301 1128 -658 1722 -562 932 -1454 1614 -2507 1914 -479 137
-987 189 -1485 154z m615 -64 c258 -24 408 -50 670 -115 132 -33 348 -99 342
-106 -2 -2 -73 14 -158 36 -437 113 -816 150 -1349 132 -180 -6 -356 -18 -450
-31 -962 -126 -1839 -569 -2511 -1268 -166 -173 -358 -408 -464 -569 -15 -24
-30 -43 -32 -43 -6 0 10 26 105 165 352 518 849 978 1377 1277 741 420 1612
604 2470 522z m30 -175 c1002 -95 1991 -590 2684 -1342 736 -800 1146 -1874
1118 -2922 -43 -1561 -980 -2991 -2412 -3680 -497 -240 -1098 -386 -1655 -402
-658 -20 -1405 174 -2036 527 -930 521 -1634 1375 -1966 2384 -336 1024 -260
2079 221 3071 362 746 926 1360 1636 1780 475 281 1025 475 1570 555 336 49
553 56 840 29z m-2520 -537 c-6 -5 -62 -44 -125 -87 -330 -223 -715 -563 -951
-840 -331 -387 -582 -812 -761 -1285 -124 -328 -204 -654 -253 -1040 l-15
-115 5 125 c22 619 279 1343 693 1950 333 489 797 929 1309 1241 91 55 120 70
98 51z m5415 -910 c261 -296 487 -635 615 -921 165 -368 280 -781 335 -1201
28 -208 38 -629 21 -846 -37 -470 -146 -927 -319 -1339 -56 -135 -186 -403
-204 -420 -5 -5 10 31 35 81 197 394 344 874 402 1314 48 364 47 830 -1 1190
-119 888 -470 1660 -1047 2305 l-81 90 68 -65 c38 -36 117 -120 176 -188z
m-6889 -369 c-5 -10 -17 -27 -26 -38 -16 -19 -17 -19 -3 5 26 46 29 50 34 50
3 0 0 -8 -5 -17z m24 -283 c-9 -16 -18 -30 -21 -30 -2 0 2 14 11 30 9 17 18
30 21 30 2 0 -2 -13 -11 -30z m-120 -238 c-221 -481 -340 -945 -386 -1507 -15
-179 -6 -635 16 -815 96 -805 380 -1518 848 -2130 121 -158 167 -211 332 -379
82 -85 123 -132 90 -104 -85 72 -337 331 -426 438 -347 417 -528 736 -699
1230 -151 440 -224 884 -223 1375 0 588 96 1079 318 1632 46 116 190 418 199
418 2 0 -29 -71 -69 -158z m-538 -1679 c-2 -21 -4 -4 -4 37 0 41 2 58 4 38 2
-21 2 -55 0 -75z m8589 -470 c-16 -303 -61 -587 -126 -803 -215 -720 -586
-1331 -1126 -1860 -222 -218 -403 -364 -649 -524 -202 -133 -248 -153 -74 -33
224 154 576 454 774 659 425 439 728 922 945 1501 120 324 223 778 246 1095
10 138 18 111 10 -35z m-642 -2055 c-21 -36 -133 -202 -178 -263 -381 -525
-941 -1007 -1493 -1284 -939 -470 -2008 -564 -3066 -270 -165 46 -194 64 -41
25 352 -89 682 -126 1128 -126 376 0 587 20 924 86 1065 208 2061 862 2659
1746 37 54 68 98 70 98 2 0 1 -6 -3 -12z m-1454 -1253 c0 -2 -10 -9 -22 -15
-22 -11 -22 -10 -4 4 21 17 26 19 26 11z"/>
<path d="M1910 7148 c-67 -45 -87 -138 -56 -253 55 -202 761 -2526 776 -2556
26 -50 75 -86 136 -100 91 -21 176 22 223 113 12 24 145 516 296 1093 151 578
278 1057 281 1065 3 8 132 -471 285 -1065 299 -1155 291 -1130 367 -1181 17
-12 51 -24 74 -28 93 -13 167 28 212 116 30 60 771 2509 785 2597 15 91 -4
160 -55 200 -21 17 -41 21 -96 21 -80 0 -124 -16 -158 -56 -20 -23 -93 -268
-340 -1127 -173 -604 -316 -1094 -317 -1090 -1 4 -131 487 -288 1072 -157 585
-290 1071 -294 1080 -14 26 -53 57 -91 72 -43 17 -137 17 -170 -1 -35 -17 -79
-60 -94 -90 -7 -14 -138 -494 -291 -1068 -153 -573 -282 -1039 -286 -1035 -4
5 -142 480 -308 1057 -166 576 -311 1065 -321 1087 -11 21 -36 50 -56 66 -31
23 -49 28 -108 31 -61 3 -76 1 -106 -20z"/>
<path d="M6480 6430 c-327 -39 -600 -182 -783 -410 -79 -98 -175 -283 -207
-400 -85 -311 -61 -661 65 -927 150 -318 415 -529 771 -614 87 -21 122 -24
294 -24 215 1 289 12 444 64 387 132 657 461 730 890 20 120 21 332 1 456 -80
495 -442 867 -925 949 -114 19 -298 27 -390 16z m365 -315 c33 -8 69 -19 80
-24 166 -73 235 -118 330 -215 96 -98 118 -127 169 -231 70 -141 91 -233 90
-400 0 -166 -19 -248 -90 -391 -47 -96 -67 -125 -149 -212 -184 -199 -463
-302 -736 -272 -353 39 -643 273 -754 610 -83 254 -49 522 98 754 121 192 352
349 574 391 96 18 301 13 388 -10z"/>
<path d="M5997 5652 c-15 -15 -27 -35 -27 -42 0 -8 71 -86 157 -172 l157 -158
-154 -155 c-85 -85 -157 -162 -158 -171 -5 -19 45 -74 67 -74 20 0 401 380
401 400 0 20 -381 400 -401 400 -8 0 -27 -13 -42 -28z"/>
<path d="M6466 4914 c-11 -27 -7 -71 8 -83 9 -8 125 -10 407 -9 l394 3 3 53 3
52 -404 0 c-360 0 -406 -2 -411 -16z"/>
<path d="M4835 4345 c-639 -104 -1122 -613 -1211 -1275 -113 -849 435 -1604
1243 -1711 130 -17 411 -6 524 20 93 21 254 79 334 119 68 34 212 129 257 170
125 113 64 332 -94 332 -61 0 -88 -11 -173 -69 -205 -140 -388 -206 -605 -217
-505 -27 -956 337 -1087 878 -25 104 -26 422 -1 525 83 340 283 608 568 762
174 93 331 128 544 118 229 -10 372 -63 561 -207 124 -94 182 -106 277 -59 61
31 83 72 83 155 0 62 -3 75 -28 107 -26 34 -118 107 -213 169 -122 79 -292
145 -449 175 -115 21 -417 26 -530 8z"/>
<path d="M2451 3714 c-30 -39 -27 -80 9 -114 22 -21 30 -37 30 -62 l-1 -33
-54 59 c-36 39 -59 56 -70 53 -27 -11 -16 -30 57 -104 l73 -73 3 -83 4 -82
-60 58 c-33 33 -59 64 -59 70 1 36 -6 48 -29 58 -20 7 -32 6 -50 -6 -28 -18
-33 -65 -9 -85 9 -7 15 -29 15 -53 l0 -41 -35 34 c-32 31 -34 38 -37 104 -2
55 -6 71 -18 71 -11 0 -16 -13 -18 -49 l-3 -49 -30 29 c-21 20 -29 37 -29 61
0 42 -30 73 -70 73 -34 0 -70 -30 -70 -60 0 -53 42 -90 89 -77 13 3 30 -6 51
-28 l31 -32 -56 5 c-51 4 -55 3 -55 -17 0 -19 5 -21 73 -21 72 0 73 -1 112
-40 l39 -40 -45 0 c-36 0 -46 4 -54 23 -20 46 -105 27 -105 -24 0 -29 38 -62
64 -55 17 4 34 -7 80 -53 l57 -58 -78 -6 -78 -6 -70 69 c-39 39 -76 70 -83 70
-26 0 -9 -37 40 -87 l52 -53 -42 0 c-23 0 -42 4 -42 8 0 24 -43 52 -80 52 -51
0 -80 -30 -80 -80 0 -77 84 -107 142 -50 20 21 39 30 61 30 l31 0 -58 -59
c-53 -54 -64 -81 -33 -81 6 0 44 32 83 71 l72 71 88 5 89 5 -58 -59 c-53 -54
-60 -59 -94 -55 -39 5 -63 -14 -63 -50 0 -24 35 -58 60 -58 11 0 28 9 37 20
13 14 30 20 62 20 l45 0 -34 -35 c-31 -32 -37 -34 -109 -37 -63 -3 -76 -6 -79
-20 -3 -16 5 -18 54 -18 l58 0 -29 -30 c-22 -23 -38 -30 -67 -30 -72 0 -103
-66 -53 -115 47 -48 115 -19 115 48 0 24 8 41 30 62 l30 29 0 -47 c0 -40 3
-47 20 -47 18 0 20 7 20 68 0 65 2 70 35 102 l35 34 0 -36 c0 -21 -6 -38 -14
-41 -20 -8 -25 -54 -9 -77 30 -42 110 -13 100 36 -3 17 10 36 55 81 l58 57 0
-85 0 -85 -70 -69 c-38 -38 -70 -75 -70 -82 0 -27 37 -11 87 39 l53 52 0 -37
c0 -30 -6 -44 -30 -64 -24 -20 -30 -33 -30 -64 0 -52 27 -79 80 -79 79 0 109
83 50 142 -21 20 -30 39 -30 61 l0 31 58 -57 c32 -31 63 -57 70 -57 29 0 7 41
-58 105 l-70 69 0 80 0 80 50 -49 c34 -34 50 -57 50 -75 0 -35 17 -50 57 -50
51 0 71 52 33 90 -11 11 -20 33 -20 51 l0 31 33 -27 c29 -25 32 -34 37 -99 4
-63 7 -71 25 -71 16 0 21 8 23 44 l3 43 25 -23 c17 -16 24 -33 24 -61 0 -72
66 -103 115 -53 48 47 22 115 -44 115 -28 0 -44 7 -66 30 l-29 30 58 0 c49 0
57 2 54 18 -3 14 -16 18 -77 20 -69 3 -77 6 -113 37 l-38 35 41 0 c26 0 50 -7
66 -20 14 -11 33 -20 43 -20 41 0 67 73 35 100 -8 7 -30 10 -50 8 -31 -4 -40
2 -86 48 l-50 51 78 6 78 6 70 -69 c39 -39 76 -70 82 -70 31 0 20 27 -33 81
l-58 59 40 0 c33 0 44 -5 62 -30 18 -24 30 -30 60 -30 72 0 109 57 78 118 -27
53 -92 59 -136 12 -20 -22 -37 -30 -62 -30 l-33 0 58 57 c54 52 67 83 35 83
-8 0 -45 -31 -83 -70 l-69 -70 -80 0 -80 0 54 55 c31 31 63 55 75 55 34 0 65
28 65 59 0 36 -17 51 -57 51 -26 0 -36 -6 -45 -25 -10 -21 -18 -25 -57 -25
l-45 0 39 40 c38 39 40 40 110 40 76 0 87 4 78 26 -3 9 -22 14 -56 14 l-50 0
23 25 c17 18 34 25 62 25 47 0 78 28 78 70 0 40 -31 70 -73 70 -43 0 -67 -26
-67 -71 0 -26 -8 -43 -29 -63 l-30 -29 -3 49 c-2 36 -7 49 -18 49 -12 0 -16
-16 -18 -71 -3 -66 -5 -73 -37 -104 l-35 -34 0 37 c0 24 7 44 20 57 11 11 20
29 20 40 0 25 -34 60 -59 60 -29 0 -51 -27 -51 -64 0 -25 -11 -42 -50 -81
l-50 -49 0 85 0 85 65 64 c36 35 65 70 65 77 0 31 -27 21 -81 -33 l-59 -58 0
41 c0 33 4 43 21 48 11 4 27 23 35 42 13 31 13 38 -3 71 -16 34 -22 37 -64 40
-41 3 -50 -1 -68 -24z m97 -45 c6 -49 -58 -65 -73 -18 -9 27 13 51 44 47 20
-2 27 -9 29 -29z m-453 -189 c0 -18 -6 -26 -23 -28 -27 -4 -40 22 -22 44 19
22 45 13 45 -16z m875 15 c10 -12 10 -18 0 -30 -25 -30 -61 -7 -46 30 3 8 12
15 19 15 8 0 20 -7 27 -15z m-504 -279 c-12 -4 -31 -13 -44 -19 -18 -9 -26 -6
-47 13 -21 20 -25 32 -25 83 l0 59 68 -63 c63 -59 67 -65 48 -73z m182 -3
c-23 -23 -25 -23 -62 -8 l-39 16 59 60 59 60 3 -52 c3 -44 -1 -56 -20 -76z
m-305 -31 c27 -28 27 -29 12 -65 -8 -20 -16 -37 -18 -37 -1 0 -32 29 -67 65
l-64 65 55 0 c48 0 59 -4 82 -28z m413 -37 c-38 -36 -70 -64 -71 -63 -1 2 -9
18 -19 37 -16 34 -16 35 11 63 24 25 34 28 87 28 l61 -1 -69 -64z m-197 -9
c69 -36 66 -137 -6 -171 -63 -30 -128 6 -140 78 -5 32 -1 41 30 72 38 38 70
44 116 21z m-624 -91 c0 -35 -27 -55 -52 -39 -42 26 -15 91 30 75 15 -6 22
-17 22 -36z m1215 31 c19 -23 8 -61 -18 -64 -44 -7 -67 32 -36 62 19 20 38 20
54 2z m-791 -102 c12 -33 11 -38 -10 -60 -18 -20 -32 -24 -78 -24 l-55 0 59
60 c33 33 62 60 65 60 3 0 12 -16 19 -36z m390 -82 c-44 -3 -56 1 -76 20 -23
23 -23 25 -8 62 l16 39 60 -59 60 -59 -52 -3z m-277 -12 c4 -3 -21 -35 -57
-70 l-65 -64 0 56 c0 50 3 59 30 82 27 22 34 24 58 14 15 -7 30 -14 34 -18z
m198 -74 l0 -50 -60 59 -60 59 32 17 c32 17 33 17 61 -9 22 -21 27 -34 27 -76z
m-572 -194 c4 -28 -24 -41 -44 -20 -20 20 -7 50 20 46 13 -2 22 -12 24 -26z
m872 12 c11 -12 10 -18 -3 -32 -16 -15 -18 -15 -33 0 -19 18 -12 48 9 48 8 0
20 -7 27 -16z m-422 -156 c30 -30 -5 -83 -45 -67 -39 14 -25 79 17 79 9 0 21
-5 28 -12z"/>
<path d="M8253 1526 l-143 -144 0 -81 c0 -90 12 -103 49 -53 l20 27 1 -60 0
-60 103 -103 102 -102 84 0 83 0 139 132 139 131 0 84 c0 90 -7 99 -47 61
l-23 -21 0 62 0 62 -104 105 -104 104 -79 0 -78 0 -142 -144z m281 -277 c-56
-56 -59 -58 -77 -41 -40 36 -97 95 -97 100 0 3 26 32 57 64 l58 57 58 -61 58
-61 -57 -58z"/>
<path d="M7815 951 c-12 -5 -26 -16 -33 -24 -14 -17 -18 -81 -7 -116 8 -25 53
-51 89 -51 31 0 86 45 86 71 0 26 -32 25 -48 -2 -19 -30 -72 -23 -91 12 -13
24 -13 29 2 53 22 33 71 36 87 6 12 -23 50 -27 50 -6 0 8 -8 24 -18 36 -19 24
-84 35 -117 21z"/>
<path d="M8120 865 c0 -74 3 -95 14 -95 7 0 27 -3 44 -6 24 -5 36 -1 56 19 15
15 26 38 26 52 0 36 -44 78 -76 72 -21 -4 -24 -1 -24 24 0 22 -5 29 -20 29
-19 0 -20 -7 -20 -95z m98 -19 c5 -23 -23 -47 -44 -39 -15 5 -19 44 -7 57 13
13 48 1 51 -18z"/>
<path d="M8900 866 l0 -93 36 -6 c64 -11 104 19 104 77 0 31 -46 69 -77 63
-20 -4 -23 0 -23 24 0 22 -5 29 -20 29 -19 0 -20 -7 -20 -94z m90 -11 c18 -21
5 -45 -25 -45 -20 0 -25 5 -25 23 0 39 26 50 50 22z"/>
<path d="M8590 861 c0 -99 1 -101 73 -101 50 0 72 12 64 34 -4 11 -19 16 -47
16 l-40 0 0 70 c0 68 -1 70 -25 70 -25 0 -25 -1 -25 -89z"/>
<path d="M7965 878 c4 -18 16 -50 27 -72 14 -27 17 -41 9 -49 -17 -17 -13 -47
7 -47 12 1 29 26 55 83 36 78 46 117 30 117 -17 0 -33 -17 -46 -50 l-15 -34
-21 42 c-27 52 -56 58 -46 10z"/>
<path d="M8296 889 c-34 -27 -35 -71 -1 -104 13 -14 33 -25 43 -25 30 0 61 31
68 67 5 26 1 37 -19 57 -32 31 -56 33 -91 5z m69 -29 c4 -6 -7 -10 -25 -10
-18 0 -29 4 -25 10 3 6 15 10 25 10 10 0 22 -4 25 -10z m-4 -49 c-8 -5 -20 -7
-28 -4 -21 8 -15 13 15 13 20 0 23 -3 13 -9z"/>
<path d="M8458 903 c-27 -4 -28 -6 -28 -69 0 -50 3 -64 15 -64 11 0 15 11 15
40 0 29 5 43 20 52 19 12 29 50 13 47 -5 -1 -20 -4 -35 -6z"/>
<path d="M8768 895 c-33 -19 -43 -48 -28 -84 14 -36 49 -52 94 -44 l36 6 0 63
c0 54 -3 64 -17 64 -10 0 -27 2 -38 5 -11 3 -32 -2 -47 -10z m70 -49 c6 -27
-25 -48 -49 -35 -22 11 -24 30 -7 47 18 18 52 10 56 -12z"/>
<path d="M9072 894 c-26 -18 -28 -37 -6 -58 14 -15 14 -16 0 -16 -25 0 -19
-28 9 -46 20 -13 33 -15 58 -7 31 8 32 11 34 63 1 41 -2 58 -14 68 -23 16 -54
15 -81 -4z m53 -24 c3 -5 -1 -10 -9 -10 -9 0 -16 5 -16 10 0 6 4 10 9 10 6 0
13 -4 16 -10z m0 -60 c-3 -5 -12 -7 -20 -3 -21 7 -19 13 6 13 11 0 18 -4 14
-10z"/>
</g>
</svg>
