<svg width="12" height="12" fill="none" xmlns="http://www.w3.org/2000/svg"><path d="M5.116.798l.59-.605A.612.612 0 0 1 6.16 0a.61.61 0 0 1 .455.193l5.197 5.34A.646.646 0 0 1 12 6c0 .183-.063.34-.188.468l-5.196 5.34a.611.611 0 0 1-.455.192.611.611 0 0 1-.456-.193l-.589-.605a.606.606 0 0 1-.214-.468.756.756 0 0 1 .214-.468L8.33 7.101H.643a.612.612 0 0 1-.456-.193A.646.646 0 0 1 0 6.44v-.88c0-.184.063-.34.188-.468a.612.612 0 0 1 .455-.193H8.33L5.116 1.734a.756.756 0 0 1-.214-.468c0-.183.071-.34.214-.468z" fill="#8166CD"/></svg>